<?xml version="1.0" standalone="no"?><!DOCTYPE svg PUBLIC "-//W3C//DTD SVG 1.1//EN" "http://www.w3.org/Graphics/SVG/1.1/DTD/svg11.dtd"><svg t="1734621296309" class="icon" viewBox="0 0 1027 1024" version="1.1" xmlns="http://www.w3.org/2000/svg" p-id="4312" xmlns:xlink="http://www.w3.org/1999/xlink" width="200.5859375" height="200"><path d="M862.0032 369.664c0 109.6704-88.8832 198.5536-198.5536 198.5536S464.896 479.3344 464.896 369.664s88.8832-198.5536 198.5536-198.5536 198.5536 88.8832 198.5536 198.5536zM663.552 0l32.1536 142.848h-64.4096zM537.088 22.3232l66.1504 127.8976-34.6112 12.5952zM425.8816 86.528l116.5312 88.6784-49.3568 41.3696zM343.4496 184.832l132.8128 55.5008-18.3296 31.8464zM299.52 305.4592l146.2272-6.8608-11.1616 63.3856zM299.52 433.8688l137.4208-42.9056 6.3488 36.2496zM343.3472 554.496l107.6224-99.328 32.1536 55.808zM425.8816 652.8l77.7216-121.2416 28.16 23.6544zM537.088 717.0048l18.6368-145.2032 60.416 22.016zM663.552 739.2256L645.12 596.48h36.7616zM789.9136 717.0048l-79.0528-123.1872 60.5184-22.016zM901.12 652.8l-105.8816-97.5872 28.16-23.552zM983.6544 554.496L843.8784 510.976l32.1536-55.808zM1027.4816 433.8688l-143.7696-6.656 6.3488-36.2496zM1027.4816 305.4592l-134.9632 56.5248-11.1616-63.3856zM983.6544 184.832l-114.4832 87.3472-18.432-31.8464zM901.12 86.528l-67.1744 130.048-49.2544-41.3696zM789.9136 22.3232L758.3744 162.816l-34.5088-12.5952z" fill="#FFFFFF" p-id="4313"></path><path d="M762.368 811.52c-301.6704 0-546.304-244.6336-546.304-546.304 0-96.256 24.9856-186.5728 68.608-265.1136C117.0432 93.2864 3.4816 272.1792 3.4816 477.696 3.4816 779.4688 248.1152 1024 549.7856 1024c205.5168 0 384.4096-113.4592 477.696-281.1904a543.19104 543.19104 0 0 1-265.1136 68.7104z" fill="#FFFFFF" p-id="4314"></path></svg>